<?xml version="1.0" encoding="utf-8"?>
<!-- Generator: Adobe Illustrator 15.1.0, SVG Export Plug-In . SVG Version: 6.00 Build 0)  -->
<!DOCTYPE svg PUBLIC "-//W3C//DTD SVG 1.1//EN" "http://www.w3.org/Graphics/SVG/1.1/DTD/svg11.dtd">
<svg version="1.1" id="Camada_1" xmlns="http://www.w3.org/2000/svg" xmlns:xlink="http://www.w3.org/1999/xlink" x="0px" y="0px"
	 width="337.333px" height="309.333px" viewBox="0 0 337.333 309.333" enable-background="new 0 0 337.333 309.333"
	 xml:space="preserve">
<g>
	<path stroke="#000000" stroke-width="6" d="M106.36,183.833h-56c-6.627,0-12,5.373-12,12v79.501c0,6.627,5.373,12,12,12h56
		c6.627,0,12-5.373,12-12v-30.338v-49.163C118.36,189.205,112.987,183.833,106.36,183.833z"/>
	<path fill="#EBEBFF" stroke="#000000" stroke-width="6" d="M106.36,183.833h3.75c5.937,0,10.75-4.813,10.75-10.75
		s-4.813-10.75-10.75-10.75h-8.828H56.865H46.61c-5.937,0-10.75,4.813-10.75,10.75s4.813,10.75,10.75,10.75h3.75H106.36z"/>
	<path stroke="#000000" stroke-width="6" d="M101.282,162.333c6.505,0,11.779-5.96,11.779-13.312v-22.569v-18.474
		c0-5.092-2.532-9.513-6.25-11.751c-0.04,0.703-0.073,1.393-0.118,2.106H51.527v-2.211c-3.82,2.201-6.442,6.678-6.442,11.856v41.043
		c0,7.352,5.274,13.312,11.78,13.312H101.282z"/>
	<path fill="#FF1B00" stroke="#000000" stroke-width="6" d="M106.693,98.333c0.045-0.713,0.079-1.404,0.118-2.106
		c2.667-47.184-7.454-70.528-7.618-70.868c-0.614-1.615-1.186-2.995-1.721-4.186l0,0l0,0c-3.968-8.83-5.799-6.85-5.945-7.001
		c-26.667-3.27-40,41.994-40,41.994v39.956v2.211H106.693z"/>
	<g>
		<path stroke="#000000" stroke-width="6" d="M208.671,72.666c-38.093,0-71.536,20.279-90.541,50.83v23.841
			c0,7.767-5.624,14.063-12.561,14.063h9.413c3.682,0,6.95,1.726,9.047,4.399c7.396-43.148,43.26-75.88,86.393-75.88
			c48.485,0,87.791,41.363,87.791,92.388c0,51.026-39.306,92.388-87.791,92.388c-43.65,0-79.854-33.525-86.644-77.441v51.468
			c19.597,25.914,50.331,42.611,84.892,42.611c59.184,0,107.162-48.951,107.162-109.334
			C315.833,121.616,267.855,72.666,208.671,72.666z"/>
		<path stroke="#000000" stroke-width="6" d="M122.644,181.186c-2.032,1.812-4.712,2.926-7.661,2.926h-3.999
			c5.782,0,10.662,3.8,12.249,9.016c-0.394-3.549-0.603-7.159-0.603-10.821C122.631,181.933,122.64,181.561,122.644,181.186z"/>
		<path fill="#FFADA8" stroke="#000000" stroke-width="6" d="M210.423,274.695c48.485,0,87.791-41.361,87.791-92.388
			c0-51.025-39.306-92.388-87.791-92.388c-43.133,0-78.998,32.731-86.393,75.88c-0.857,5-1.327,10.141-1.386,15.387
			c-0.004,0.375-0.013,0.747-0.013,1.121c0,3.662,0.208,7.271,0.603,10.821c0.153,1.384,0.335,2.76,0.546,4.126
			C130.569,241.169,166.773,274.695,210.423,274.695z"/>
	</g>
	<path fill="#FFADA8" stroke="#000000" stroke-width="6" d="M147.833,152.666"/>
	<path fill="#FF1B00" stroke="#000000" stroke-width="6" d="M95.643,17.566c0,0-32.089,38.433-44.116,38.6"/>
	<path fill="#FFADA8" stroke="#000000" stroke-width="6" d="M143.833,152.666c0,0,22-46.333,65-44.333"/>
	<rect x="4.5" y="4.666" fill="none" stroke="#000000" stroke-width="6" width="330" height="301.835"/>
	<text transform="matrix(0.8846 0 0 1 180.1714 217.0425)" font-family="'Proxy3'" font-size="92.0026">V</text>
</g>
</svg>
